<?xml version="1.0" encoding="utf-8"?><!--Generator: Adobe Illustrator 16.0.0, SVG Export Plug-In . SVG Version: 6.00 Build 0)--><!DOCTYPE svg PUBLIC "-//W3C//DTD SVG 1.1//EN" "http://www.w3.org/Graphics/SVG/1.1/DTD/svg11.dtd"><svg version="1.1" id="Ebene_1" xmlns="http://www.w3.org/2000/svg" xmlns:xlink="http://www.w3.org/1999/xlink" x="0px" y="0px" width="192px" height="105.728px" viewBox="0 0 192 105.728" enable-background="new 0 0 192 105.728" xml:space="preserve"><polygon fill="#231F20" points="4.225,72.688 4.225,74.051 7.199,74.051 7.199,82.417 8.861,82.417 8.861,74.051 11.864,74.051 
	11.864,72.688 "/><polygon fill="#231F20" points="21.587,82.417 19.921,82.417 19.921,78.102 15.613,78.102 15.613,82.417 13.941,82.417 
	13.941,72.688 15.613,72.688 15.613,76.737 19.921,76.737 19.921,72.688 21.587,72.688 "/><polygon fill="#231F20" points="30.007,78.073 26.052,78.073 26.052,81.064 30.675,81.064 30.675,82.415 24.379,82.415 
	24.379,72.688 30.628,72.688 30.628,74.05 26.052,74.05 26.052,76.737 30.007,76.737 "/><path fill="#231F20" d="M34.981,78.788h2.792l-1.396-4.035L34.981,78.788z M38.241,80.15H34.51l-0.777,2.265h-1.74l3.638-9.727
	h1.501l3.645,9.727h-1.746L38.241,80.15z"/><polygon fill="#231F20" points="49.639,74.05 46.636,74.05 46.636,82.415 44.975,82.415 44.975,74.05 41.999,74.05 41.999,72.688 
	49.639,72.688 "/><polygon fill="#231F20" points="57.344,78.073 53.389,78.073 53.389,81.064 58.012,81.064 58.012,82.415 51.714,82.415 
	51.714,72.688 57.965,72.688 57.965,74.05 53.389,74.05 53.389,76.737 57.344,76.737 "/><g><defs><rect id="SVGID_1_" x="4.225" y="5.834" width="183.152" height="93.111"/></defs><clipPath id="SVGID_2_"><use xlink:href="#SVGID_1_" overflow="visible"/></clipPath><path clip-path="url(#SVGID_2_)" fill="#231F20" d="M61.86,77.312h1.721c0.563,0,1.003-0.144,1.323-0.431
		c0.317-0.288,0.474-0.68,0.474-1.181c0-0.521-0.146-0.923-0.439-1.208c-0.294-0.286-0.73-0.434-1.313-0.442H61.86V77.312z
		 M63.726,78.674H61.86v3.743h-1.674v-9.729h3.388c1.11,0,1.967,0.25,2.573,0.755c0.604,0.504,0.904,1.231,0.904,2.187
		c0,0.652-0.153,1.195-0.465,1.637c-0.311,0.438-0.745,0.774-1.3,1.011l2.162,4.05v0.09h-1.793L63.726,78.674z"/><path clip-path="url(#SVGID_2_)" fill="#231F20" d="M71.127,77.443h2.011c0.595,0,1.048-0.141,1.362-0.423
		c0.313-0.283,0.471-0.691,0.471-1.226c0-0.525-0.159-0.947-0.476-1.261c-0.319-0.313-0.756-0.475-1.311-0.483h-2.058V77.443z
		 M71.127,78.808v3.607h-1.675v-9.728h3.686c1.074,0,1.93,0.284,2.563,0.851c0.633,0.565,0.948,1.314,0.948,2.246
		c0,0.955-0.31,1.698-0.929,2.228c-0.619,0.53-1.487,0.796-2.604,0.796H71.127z"/><path clip-path="url(#SVGID_2_)" fill="#231F20" d="M83.157,71.225c0-0.224,0.074-0.409,0.224-0.561
		c0.146-0.153,0.351-0.227,0.609-0.227c0.26,0,0.466,0.073,0.615,0.227c0.151,0.151,0.228,0.337,0.228,0.561
		c0,0.222-0.076,0.409-0.228,0.563c-0.149,0.151-0.355,0.227-0.615,0.227c-0.259,0-0.464-0.075-0.609-0.227
		C83.231,71.634,83.157,71.446,83.157,71.225 M81.055,78.788h2.792l-1.396-4.035L81.055,78.788z M80.135,71.218
		c0-0.224,0.074-0.408,0.222-0.561c0.147-0.151,0.353-0.228,0.611-0.228c0.262,0,0.467,0.076,0.616,0.228
		c0.149,0.152,0.224,0.337,0.224,0.561c0,0.222-0.074,0.411-0.224,0.563s-0.354,0.227-0.616,0.227c-0.259,0-0.464-0.075-0.611-0.227
		S80.135,71.439,80.135,71.218 M84.314,80.15h-3.729l-0.779,2.265h-1.74l3.638-9.727h1.501l3.645,9.727h-1.745L84.314,80.15z"/><path clip-path="url(#SVGID_2_)" fill="#231F20" d="M90.427,74.051v7.016h1.091c0.878,0,1.55-0.277,2.021-0.833
		c0.47-0.554,0.707-1.35,0.716-2.387v-0.544c0-1.055-0.225-1.859-0.68-2.417c-0.455-0.557-1.113-0.835-1.979-0.835H90.427z
		 M88.753,82.417v-9.729h2.844c0.852,0,1.605,0.19,2.267,0.573c0.658,0.384,1.17,0.927,1.529,1.632
		c0.364,0.703,0.544,1.508,0.544,2.417v0.488c0,0.921-0.182,1.733-0.548,2.431c-0.36,0.702-0.879,1.239-1.553,1.617
		c-0.673,0.38-1.444,0.57-2.312,0.57H88.753z"/></g><path fill="#231F20" d="M100.546,78.788h2.793l-1.397-4.035L100.546,78.788z M103.807,80.15h-3.732l-0.778,2.265h-1.74l3.637-9.727
	h1.505l3.644,9.727h-1.745L103.807,80.15z"/><g><defs><rect id="SVGID_3_" x="4.225" y="5.834" width="183.152" height="93.111"/></defs><clipPath id="SVGID_4_"><use xlink:href="#SVGID_3_" overflow="visible"/></clipPath><path clip-path="url(#SVGID_4_)" fill="#231F20" d="M115.626,81.152c-0.347,0.459-0.83,0.808-1.448,1.043
		c-0.617,0.235-1.316,0.354-2.103,0.354c-0.809,0-1.524-0.186-2.145-0.557c-0.62-0.367-1.103-0.895-1.438-1.586
		c-0.34-0.688-0.514-1.49-0.527-2.408V77.24c0-1.472,0.35-2.621,1.046-3.447c0.699-0.826,1.67-1.237,2.918-1.237
		c1.072,0,1.923,0.267,2.554,0.803c0.631,0.538,1.007,1.31,1.136,2.315h-1.641c-0.186-1.171-0.857-1.756-2.014-1.756
		c-0.753,0-1.322,0.271-1.713,0.817c-0.39,0.545-0.59,1.345-0.604,2.399v0.748c0,1.05,0.218,1.865,0.657,2.445
		c0.439,0.582,1.05,0.872,1.828,0.872c0.856,0,1.465-0.197,1.828-0.589v-1.903h-1.986v-1.282h3.651V81.152z"/><path clip-path="url(#SVGID_4_)" fill="#231F20" d="M124.292,77.298c0-1.077-0.202-1.903-0.604-2.479
		c-0.406-0.575-0.978-0.861-1.718-0.861c-0.724,0-1.288,0.285-1.698,0.857c-0.407,0.573-0.615,1.382-0.624,2.428v0.563
		c0,1.069,0.206,1.896,0.617,2.479c0.415,0.584,0.984,0.876,1.716,0.876c0.742,0,1.312-0.285,1.712-0.854
		c0.401-0.569,0.6-1.404,0.6-2.5V77.298z M125.964,77.806c0,0.955-0.162,1.79-0.487,2.509c-0.328,0.721-0.794,1.271-1.399,1.657
		c-0.606,0.385-1.306,0.577-2.097,0.577c-0.777,0-1.473-0.192-2.085-0.577c-0.608-0.387-1.084-0.934-1.417-1.648
		c-0.332-0.712-0.499-1.533-0.504-2.463v-0.55c0-0.948,0.165-1.786,0.497-2.511c0.334-0.726,0.804-1.283,1.41-1.668
		c0.608-0.385,1.304-0.576,2.088-0.576s1.48,0.189,2.087,0.569c0.606,0.381,1.074,0.93,1.404,1.644
		c0.332,0.715,0.497,1.547,0.503,2.496V77.806z"/><path clip-path="url(#SVGID_4_)" fill="#231F20" d="M135.825,81.152c-0.347,0.459-0.83,0.808-1.448,1.043
		c-0.615,0.235-1.318,0.354-2.103,0.354c-0.809,0-1.521-0.186-2.145-0.557c-0.621-0.367-1.099-0.895-1.438-1.586
		c-0.335-0.688-0.51-1.49-0.523-2.408V77.24c0-1.472,0.348-2.621,1.042-3.447c0.698-0.826,1.672-1.237,2.918-1.237
		c1.074,0,1.922,0.267,2.555,0.803c0.629,0.538,1.009,1.31,1.139,2.315h-1.642c-0.187-1.171-0.857-1.756-2.018-1.756
		c-0.749,0-1.318,0.271-1.709,0.817c-0.391,0.545-0.593,1.345-0.604,2.399v0.748c0,1.05,0.218,1.865,0.657,2.445
		c0.439,0.582,1.048,0.872,1.828,0.872c0.854,0,1.463-0.197,1.826-0.589v-1.903h-1.984v-1.282h3.649V81.152z"/></g><rect x="138.578" y="72.688" fill="#231F20" width="1.666" height="9.729"/><g><defs><rect id="SVGID_5_" x="4.225" y="5.834" width="183.152" height="93.111"/></defs><clipPath id="SVGID_6_"><use xlink:href="#SVGID_5_" overflow="visible"/></clipPath><path clip-path="url(#SVGID_6_)" fill="#231F20" d="M148.147,79.91c0-0.429-0.147-0.758-0.446-0.99
		c-0.298-0.229-0.834-0.464-1.61-0.699c-0.777-0.239-1.395-0.499-1.853-0.789c-0.878-0.556-1.315-1.283-1.315-2.178
		c0-0.784,0.316-1.43,0.947-1.939c0.635-0.504,1.458-0.761,2.465-0.761c0.672,0,1.27,0.126,1.795,0.374
		c0.523,0.25,0.935,0.604,1.233,1.065c0.303,0.461,0.454,0.974,0.454,1.534h-1.67c0-0.508-0.156-0.905-0.473-1.193
		c-0.315-0.286-0.765-0.431-1.353-0.431c-0.548,0-0.97,0.12-1.275,0.355c-0.299,0.235-0.45,0.564-0.45,0.987
		c0,0.357,0.163,0.654,0.488,0.894c0.327,0.237,0.865,0.469,1.614,0.694c0.75,0.225,1.352,0.479,1.807,0.768
		c0.453,0.287,0.787,0.617,0.998,0.99c0.211,0.372,0.316,0.805,0.316,1.306c0,0.811-0.306,1.454-0.923,1.934
		c-0.615,0.479-1.448,0.718-2.505,0.718c-0.695,0-1.336-0.129-1.919-0.391c-0.584-0.26-1.039-0.62-1.362-1.077
		c-0.325-0.459-0.487-0.993-0.487-1.605h1.676c0,0.554,0.179,0.979,0.539,1.285c0.364,0.301,0.883,0.453,1.554,0.453
		c0.584,0,1.023-0.119,1.315-0.358C148.001,80.618,148.147,80.302,148.147,79.91"/><path clip-path="url(#SVGID_6_)" fill="#231F20" d="M159.452,79.249c-0.098,1.039-0.478,1.848-1.139,2.43
		c-0.661,0.58-1.543,0.871-2.641,0.871c-0.766,0-1.441-0.185-2.024-0.552c-0.587-0.367-1.037-0.89-1.354-1.567
		c-0.32-0.677-0.485-1.463-0.496-2.357v-0.909c0-0.917,0.158-1.726,0.481-2.424c0.324-0.701,0.784-1.239,1.386-1.619
		c0.601-0.378,1.297-0.567,2.088-0.567c1.062,0,1.916,0.29,2.566,0.872c0.647,0.581,1.023,1.406,1.132,2.47h-1.67
		c-0.077-0.7-0.281-1.204-0.604-1.514s-0.798-0.464-1.424-0.464c-0.728,0-1.286,0.267-1.677,0.805
		c-0.391,0.536-0.591,1.325-0.598,2.364v0.861c0,1.053,0.183,1.856,0.559,2.408c0.373,0.554,0.918,0.828,1.635,0.828
		c0.658,0,1.153-0.146,1.484-0.445c0.33-0.299,0.541-0.796,0.625-1.49H159.452z"/></g><polygon fill="#231F20" points="169.405,82.417 167.739,82.417 167.739,78.102 163.433,78.102 163.433,82.417 161.759,82.417 
	161.759,72.688 163.433,72.688 163.433,76.737 167.739,76.737 167.739,72.688 169.405,72.688 "/><polygon fill="#231F20" points="177.825,78.073 173.87,78.073 173.87,81.064 178.493,81.064 178.493,82.415 172.196,82.415 
	172.196,72.688 178.447,72.688 178.447,74.05 173.87,74.05 173.87,76.737 177.825,76.737 "/><g><defs><rect id="SVGID_7_" x="4.225" y="5.834" width="183.152" height="93.111"/></defs><clipPath id="SVGID_8_"><use xlink:href="#SVGID_7_" overflow="visible"/></clipPath><path clip-path="url(#SVGID_8_)" fill="#231F20" d="M185.704,79.91c0-0.429-0.148-0.758-0.447-0.99
		c-0.299-0.229-0.836-0.464-1.609-0.699c-0.777-0.239-1.393-0.499-1.854-0.789c-0.879-0.556-1.314-1.283-1.314-2.178
		c0-0.784,0.313-1.43,0.949-1.939c0.633-0.504,1.452-0.761,2.461-0.761c0.672,0,1.27,0.126,1.793,0.374
		c0.523,0.25,0.938,0.604,1.237,1.065c0.303,0.461,0.45,0.974,0.45,1.534h-1.666c0-0.508-0.158-0.905-0.475-1.193
		c-0.313-0.286-0.767-0.431-1.354-0.431c-0.545,0-0.971,0.12-1.273,0.355c-0.299,0.235-0.449,0.564-0.449,0.987
		c0,0.357,0.161,0.654,0.488,0.894c0.323,0.237,0.865,0.469,1.613,0.694c0.749,0.225,1.351,0.479,1.804,0.768
		c0.457,0.287,0.791,0.617,1.002,0.99c0.208,0.372,0.316,0.805,0.316,1.306c0,0.811-0.31,1.454-0.921,1.934
		c-0.619,0.479-1.452,0.718-2.507,0.718c-0.696,0-1.336-0.129-1.919-0.391c-0.584-0.26-1.037-0.62-1.364-1.077
		c-0.323-0.459-0.485-0.993-0.485-1.605h1.674c0,0.554,0.179,0.979,0.541,1.285c0.362,0.301,0.879,0.453,1.554,0.453
		c0.584,0,1.02-0.119,1.315-0.358C185.56,80.618,185.704,80.302,185.704,79.91"/></g><rect x="6.153" y="89.084" fill="#231F20" width="1.668" height="9.726"/><polygon fill="#231F20" points="16.669,89.082 16.669,96.012 12.364,89.082 10.691,89.082 10.691,98.81 12.364,98.81 12.364,91.909 
	16.656,98.81 18.331,98.81 18.331,89.082 "/><g><defs><rect id="SVGID_9_" x="4.225" y="5.834" width="183.152" height="93.111"/></defs><clipPath id="SVGID_10_"><use xlink:href="#SVGID_9_" overflow="visible"/></clipPath><path clip-path="url(#SVGID_10_)" fill="#231F20" d="M26.155,96.307c0-0.427-0.149-0.759-0.446-0.991
		c-0.299-0.23-0.835-0.464-1.613-0.699c-0.774-0.236-1.392-0.501-1.852-0.79c-0.877-0.555-1.316-1.283-1.316-2.178
		c0-0.784,0.318-1.429,0.952-1.937c0.632-0.509,1.453-0.764,2.463-0.764c0.672,0,1.267,0.125,1.792,0.375
		c0.523,0.251,0.938,0.604,1.236,1.066c0.299,0.461,0.45,0.973,0.45,1.533h-1.666c0-0.508-0.158-0.905-0.474-1.193
		c-0.315-0.287-0.765-0.431-1.354-0.431c-0.545,0-0.971,0.119-1.273,0.354c-0.3,0.236-0.451,0.566-0.451,0.988
		c0,0.356,0.162,0.655,0.489,0.893c0.326,0.237,0.864,0.47,1.614,0.694c0.749,0.226,1.351,0.48,1.805,0.769
		c0.455,0.288,0.786,0.617,1,0.989c0.211,0.373,0.317,0.809,0.317,1.307c0,0.811-0.309,1.455-0.922,1.934
		c-0.617,0.479-1.451,0.719-2.506,0.719c-0.696,0-1.335-0.13-1.922-0.392c-0.584-0.259-1.037-0.621-1.362-1.078
		c-0.322-0.459-0.484-0.995-0.484-1.603h1.672c0,0.552,0.182,0.979,0.542,1.281c0.361,0.302,0.88,0.453,1.555,0.453
		c0.584,0,1.021-0.117,1.314-0.356C26.009,97.014,26.155,96.699,26.155,96.307"/></g><polygon fill="#231F20" points="29.429,89.082 29.429,90.446 32.404,90.446 32.404,98.81 34.067,98.81 34.067,90.446 37.067,90.446 
	37.067,89.082 "/><rect x="39.244" y="89.084" fill="#231F20" width="1.666" height="9.726"/><polygon fill="#231F20" points="43.1,89.082 43.1,90.446 46.075,90.446 46.075,98.81 47.736,98.81 47.736,90.446 50.739,90.446 
	50.739,89.082 "/><g><defs><rect id="SVGID_11_" x="4.225" y="5.834" width="183.152" height="93.111"/></defs><clipPath id="SVGID_12_"><use xlink:href="#SVGID_11_" overflow="visible"/></clipPath><path clip-path="url(#SVGID_12_)" fill="#231F20" d="M59.859,89.082v6.502c0,1.034-0.326,1.854-0.983,2.456
		c-0.653,0.604-1.526,0.905-2.615,0.905c-1.102,0-1.977-0.297-2.624-0.893c-0.65-0.595-0.972-1.419-0.972-2.476v-6.495h1.664v6.508
		c0,0.652,0.164,1.147,0.489,1.492c0.328,0.343,0.808,0.514,1.442,0.514c1.289,0,1.933-0.686,1.933-2.059v-6.455H59.859z"/></g><polygon fill="#231F20" points="61.778,89.082 61.778,90.446 64.754,90.446 64.754,98.81 66.415,98.81 66.415,90.446 69.417,90.446 
	69.417,89.082 "/><g><defs><rect id="SVGID_13_" x="4.225" y="5.834" width="183.152" height="93.111"/></defs><clipPath id="SVGID_14_"><use xlink:href="#SVGID_13_" overflow="visible"/></clipPath><path clip-path="url(#SVGID_14_)" fill="#231F20" d="M77.354,94.423v3.037h1.858c0.525,0,0.937-0.13,1.229-0.392
		c0.296-0.263,0.445-0.628,0.445-1.098c0-1.011-0.514-1.527-1.536-1.548H77.354z M77.354,93.178h1.642
		c0.521,0,0.926-0.117,1.22-0.354c0.294-0.241,0.439-0.577,0.439-1.015c0-0.479-0.136-0.828-0.407-1.042
		c-0.271-0.215-0.694-0.32-1.266-0.32h-1.628V93.178z M75.679,98.81v-9.726h3.303c1.088,0,1.917,0.22,2.486,0.661
		c0.569,0.439,0.853,1.097,0.853,1.971c0,0.446-0.118,0.847-0.355,1.202c-0.237,0.358-0.587,0.633-1.046,0.829
		c0.521,0.143,0.924,0.41,1.207,0.806c0.285,0.394,0.428,0.866,0.428,1.418c0,0.914-0.29,1.616-0.87,2.106
		c-0.581,0.49-1.409,0.732-2.493,0.732H75.679z"/></g><path fill="#231F20" d="M88.565,91.149l1.396,4.034h-2.791L88.565,91.149z M87.816,89.082l-3.638,9.728h1.741l0.78-2.264h3.73
	l0.788,2.264h1.744l-3.646-9.728H87.816z"/><polygon fill="#231F20" points="100.226,89.082 98.011,93.693 95.794,89.082 93.935,89.082 97.172,95.229 97.172,98.81 
	98.852,98.81 98.852,95.229 102.078,89.082 "/><polygon fill="#231F20" points="103.935,89.084 103.935,98.812 110.231,98.812 110.231,97.462 105.61,97.462 105.61,94.468 
	109.566,94.468 109.566,93.132 105.61,93.132 105.61,90.446 110.188,90.446 110.188,89.084 "/><g><defs><rect id="SVGID_15_" x="4.225" y="5.834" width="183.152" height="93.111"/></defs><clipPath id="SVGID_16_"><use xlink:href="#SVGID_15_" overflow="visible"/></clipPath><path clip-path="url(#SVGID_16_)" fill="#231F20" d="M114.083,93.707h1.721c0.563,0,1.002-0.145,1.321-0.433
		c0.316-0.284,0.477-0.679,0.477-1.178c0-0.521-0.146-0.925-0.441-1.209c-0.293-0.285-0.73-0.433-1.311-0.441h-1.767V93.707z
		 M115.947,95.069h-1.864v3.742h-1.676v-9.726h3.39c1.107,0,1.969,0.249,2.571,0.754c0.604,0.503,0.905,1.232,0.905,2.187
		c0,0.65-0.154,1.195-0.464,1.637c-0.312,0.436-0.745,0.775-1.301,1.009l2.162,4.052v0.088h-1.793L115.947,95.069z"/></g><polygon fill="#231F20" points="127.654,89.082 127.654,96.012 123.348,89.082 121.677,89.082 121.677,98.81 123.348,98.81 
	123.348,91.909 127.641,98.81 129.314,98.81 129.314,89.082 "/><polygon fill="#231F20" points="136.293,89.084 136.293,98.812 142.589,98.812 142.589,97.462 137.966,97.462 137.966,94.468 
	141.921,94.468 141.921,93.132 137.966,93.132 137.966,90.446 142.542,90.446 142.542,89.084 "/><g><defs><rect id="SVGID_17_" x="4.225" y="5.834" width="183.152" height="93.111"/></defs><clipPath id="SVGID_18_"><use xlink:href="#SVGID_17_" overflow="visible"/></clipPath><path clip-path="url(#SVGID_18_)" fill="#231F20" d="M145.612,97.102c0.299,0,0.531,0.084,0.692,0.257
		c0.164,0.172,0.245,0.387,0.245,0.645c0,0.252-0.081,0.464-0.245,0.631c-0.161,0.167-0.394,0.252-0.692,0.252
		c-0.288,0-0.517-0.083-0.682-0.246c-0.169-0.167-0.252-0.38-0.252-0.637c0-0.258,0.081-0.473,0.245-0.645
		C145.089,97.186,145.317,97.102,145.612,97.102"/></g><polygon fill="#231F20" points="155.202,89.082 152.755,96.693 150.334,89.082 148.501,89.082 151.954,98.81 153.574,98.81 
	157.041,89.082 "/><g><defs><rect id="SVGID_19_" x="4.225" y="5.834" width="183.152" height="93.111"/></defs><clipPath id="SVGID_20_"><use xlink:href="#SVGID_19_" overflow="visible"/></clipPath><path clip-path="url(#SVGID_20_)" fill="#231F20" d="M159.786,97.102c0.299,0,0.531,0.084,0.693,0.257
		c0.161,0.172,0.242,0.387,0.242,0.645c0,0.252-0.081,0.464-0.242,0.631c-0.162,0.167-0.395,0.252-0.693,0.252
		c-0.288,0-0.513-0.083-0.682-0.246c-0.172-0.167-0.253-0.38-0.253-0.637c0-0.258,0.081-0.473,0.246-0.645
		C159.259,97.186,159.487,97.102,159.786,97.102"/><path clip-path="url(#SVGID_20_)" fill="#231F20" d="M20.47,56.013c9.485,0,14.762-5.212,14.762-15.871
		c0-8.624-5.157-14.673-14.646-14.673h-3.615v30.544H20.47z M4.817,56.191h4.447l0.295-0.299V25.77l-5.335-3.593v-0.898h16.599
		c15.951,0,22.71,8.265,22.71,18.504c0,13.774-9.013,20.421-22.886,20.421H4.817V56.191z"/></g><path fill="#231F20" d="M69.027,45.471l-5.632-13.414h-0.298l-5.159,13.414H69.027z M84.856,56.191v4.012H69.501v-4.012h3.559
	l0.295-0.299l-2.668-6.349H56.398l-2.433,6.349l0.298,0.299h3.557v4.012H45.787v-4.012h3.26l0.297-0.299l14.17-34.614h3.142
	l14.764,34.614l0.296,0.299H84.856z"/><g><defs><rect id="SVGID_21_" x="4.225" y="5.834" width="183.152" height="93.111"/></defs><clipPath id="SVGID_22_"><use xlink:href="#SVGID_21_" overflow="visible"/></clipPath><path clip-path="url(#SVGID_22_)" fill="#231F20" d="M89.127,57.988V46.251h1.008l3.437,6.706c2.729,2.996,5.22,4.071,8.124,4.071
		c3.678,0,5.987-1.734,5.987-5.029c0-2.694-1.659-4.731-8.596-8.203c-6.345-3.175-9.842-6.708-9.842-12.278
		c0-6.886,5.455-11.138,12.865-11.138c3.438,0,6.82,0.958,9.604,2.516v11.259h-0.89l-4.447-7.365
		c-1.303-1.438-2.903-2.396-5.808-2.396c-2.846,0-5.1,1.856-5.1,4.91c0,2.754,1.661,4.491,7.943,7.845
		c8.006,4.252,10.494,7.427,10.494,12.276c0,6.529-4.624,11.68-13.338,11.68C96.419,61.104,92.506,59.904,89.127,57.988"/></g><polygon fill="#231F20" points="160.746,48.107 160.57,60.205 130.51,60.205 130.51,56.193 134.957,56.193 135.252,55.893 
	135.252,25.77 129.917,22.177 129.917,21.278 159.502,21.278 159.502,33.374 158.377,33.374 153.81,25.469 142.665,25.469 
	142.665,37.809 149.539,37.809 149.838,37.508 149.838,33.015 153.634,33.015 153.634,46.849 149.838,46.849 149.838,42.296 
	149.539,41.997 142.665,41.997 142.665,56.011 154.819,56.011 159.621,48.107 "/><polygon fill="#231F20" points="174.384,21.25 174.384,55.714 174.085,56.013 169.641,56.013 169.641,60.203 186.537,60.203 
	186.537,56.013 182.093,56.013 181.794,55.714 181.794,21.25 "/><g><defs><rect id="SVGID_23_" x="4.225" y="5.834" width="183.152" height="93.111"/></defs><clipPath id="SVGID_24_"><use xlink:href="#SVGID_23_" overflow="visible"/></clipPath><path clip-path="url(#SVGID_24_)" fill="#FFCA05" d="M183.524,11.323c0,3.031-2.434,5.49-5.436,5.49s-5.436-2.459-5.436-5.49
		c0-3.033,2.434-5.491,5.436-5.491S183.524,8.29,183.524,11.323"/></g><g/><g/><g/><g/><g/><g/><g/><g/><g/><g/><g/><g/><g/><g/><g/></svg>