<svg width="183" height="69" viewBox="0 0 183 69" fill="none" xmlns="http://www.w3.org/2000/svg">
<g clip-path="url(#clip0_234_116)">
<mask id="mask0_234_116" style="mask-type:luminance" maskUnits="userSpaceOnUse" x="0" y="-1" width="184" height="94">
<path d="M183.377 -0.166016H0.225098V92.945H183.377V-0.166016Z" fill="white"/>
</mask>
<g mask="url(#mask0_234_116)">
<path d="M179.524 5.32303C179.524 8.35403 177.09 10.813 174.088 10.813C171.086 10.813 168.652 8.35403 168.652 5.32303C168.652 2.29003 171.086 -0.167969 174.088 -0.167969C177.09 -0.167969 179.524 2.29003 179.524 5.32303Z" fill="#FFCA05"/>
</g>
<mask id="mask1_234_116" style="mask-type:luminance" maskUnits="userSpaceOnUse" x="0" y="-1" width="184" height="94">
<path d="M183.377 -0.166016H0.225098V92.945H183.377V-0.166016Z" fill="white"/>
</mask>
<g mask="url(#mask1_234_116)">
<path d="M16.4701 50.0128C25.9551 50.0128 31.2321 44.8008 31.2321 34.1418C31.2321 25.5178 26.0751 19.4688 16.5861 19.4688H12.9711V50.0128H16.4701ZM0.817121 50.1908H5.26412L5.55912 49.8918V19.7698L0.224121 16.1768V15.2788H16.8231C32.7741 15.2788 39.5331 23.5438 39.5331 33.7828C39.5331 47.5568 30.5201 54.2038 16.6471 54.2038H0.817121V50.1908Z" fill="#231F20"/>
</g>
<path d="M65.0271 39.4708L59.3951 26.0568H59.0971L53.9381 39.4708H65.0271ZM80.8561 50.1908V54.2028H65.5011V50.1908H69.0601L69.3551 49.8918L66.6871 43.5428H52.3981L49.9651 49.8918L50.2631 50.1908H53.8201V54.2028H41.7871V50.1908H45.0471L45.3441 49.8918L59.5141 15.2778H62.6561L77.4201 49.8918L77.7161 50.1908H80.8561Z" fill="#231F20"/>
<mask id="mask2_234_116" style="mask-type:luminance" maskUnits="userSpaceOnUse" x="0" y="-1" width="184" height="94">
<path d="M183.377 -0.166016H0.225098V92.945H183.377V-0.166016Z" fill="white"/>
</mask>
<g mask="url(#mask2_234_116)">
<path d="M85.127 51.9879V40.2509H86.135L89.572 46.9569C92.301 49.9529 94.792 51.0279 97.696 51.0279C101.374 51.0279 103.683 49.2939 103.683 45.9989C103.683 43.3049 102.024 41.2679 95.087 37.7959C88.742 34.6209 85.245 31.0879 85.245 25.5179C85.245 18.6319 90.7 14.3799 98.11 14.3799C101.548 14.3799 104.93 15.3379 107.714 16.8959V28.1549H106.824L102.377 20.7899C101.074 19.3519 99.474 18.3939 96.569 18.3939C93.723 18.3939 91.469 20.2499 91.469 23.3039C91.469 26.0579 93.13 27.7949 99.412 31.1489C107.418 35.4009 109.906 38.5759 109.906 43.4249C109.906 49.9539 105.282 55.1049 96.568 55.1049C92.419 55.1039 88.506 53.9039 85.127 51.9879Z" fill="#231F20"/>
</g>
<path d="M156.746 42.1068L156.57 54.2048H126.51V50.1928H130.957L131.252 49.8928V19.7698L125.917 16.1768V15.2778H155.502V27.3738H154.377L149.81 19.4688H138.665V31.8088H145.539L145.838 31.5078V27.0148H149.634V40.8488H145.838V36.2958L145.539 35.9968H138.665V50.0108H150.819L155.621 42.1068H156.746Z" fill="#231F20"/>
<path d="M170.384 15.25V49.714L170.085 50.013H165.641V54.203H182.537V50.013H178.093L177.794 49.714V15.25H170.384Z" fill="#231F20"/>
</g>
<defs>
<clipPath id="clip0_234_116">
<rect width="183" height="69" fill="white"/>
</clipPath>
</defs>
</svg>
